Ubuntu-Condensed.ufo
<glyph name="asterisk" format="2">
  <advance width="387"/>
  <unicode hex="002A"/>
  <outline>
    <contour>
      <point x="137" y="402" type="line"/>
      <point x="164" y="439"/>
      <point x="179" y="486"/>
      <point x="192" y="519" type="curve"/>
      <point x="205" y="486"/>
      <point x="220" y="440"/>
      <point x="247" y="402" type="curve"/>
      <point x="318" y="454" type="line"/>
      <point x="291" y="491"/>
      <point x="253" y="518"/>
      <point x="226" y="541" type="curve"/>
      <point x="275" y="545"/>
      <point x="315" y="545"/>
      <point x="352" y="558" type="curve"/>
      <point x="326" y="642" type="line"/>
      <point x="281" y="628"/>
      <point x="244" y="599"/>
      <point x="213" y="579" type="curve"/>
      <point x="223" y="614"/>
      <point x="238" y="660"/>
      <point x="238" y="707" type="curve"/>
      <point x="150" y="707" type="line"/>
      <point x="150" y="660"/>
      <point x="165" y="614"/>
      <point x="174" y="579" type="curve"/>
      <point x="145" y="600"/>
      <point x="105" y="628"/>
      <point x="60" y="643" type="curve"/>
      <point x="35" y="561" type="line"/>
      <point x="78" y="545"/>
      <point x="106" y="545"/>
      <point x="161" y="543" type="curve"/>
      <point x="134" y="521"/>
      <point x="94" y="491"/>
      <point x="66" y="454" type="curve"/>
    </contour>
  </outline>
</glyph>
<glyph name="three" format="2">
  <advance width="430"/>
  <unicode hex="0033"/>
  <outline>
    <contour>
      <point x="175" y="-15" type="curve" smooth="yes"/>
      <point x="299" y="-15"/>
      <point x="362" y="65"/>
      <point x="362" y="192" type="curve" smooth="yes"/>
      <point x="362" y="288"/>
      <point x="323" y="349"/>
      <point x="257" y="373" type="curve"/>
      <point x="311" y="401"/>
      <point x="343" y="455"/>
      <point x="343" y="530" type="curve" smooth="yes"/>
      <point x="343" y="638"/>
      <point x="284" y="709"/>
      <point x="181" y="709" type="curve" smooth="yes"/>
      <point x="135" y="709"/>
      <point x="84" y="693"/>
      <point x="49" y="661" type="curve"/>
      <point x="83" y="598" type="line"/>
      <point x="106" y="618"/>
      <point x="139" y="633"/>
      <point x="173" y="633" type="curve" smooth="yes"/>
      <point x="223" y="633"/>
      <point x="257" y="598"/>
      <point x="257" y="526" type="curve" smooth="yes"/>
      <point x="257" y="451"/>
      <point x="218" y="405"/>
      <point x="139" y="405" type="curve" smooth="yes"/>
      <point x="117" y="405" type="line"/>
      <point x="117" y="332" type="line"/>
      <point x="143" y="332" type="line" smooth="yes"/>
      <point x="234" y="332"/>
      <point x="275" y="285"/>
      <point x="275" y="193" type="curve" smooth="yes"/>
      <point x="275" y="102"/>
      <point x="234" y="61"/>
      <point x="167" y="61" type="curve" smooth="yes"/>
      <point x="130" y="61"/>
      <point x="95" y="76"/>
      <point x="65" y="95" type="curve"/>
      <point x="42" y="25" type="line"/>
      <point x="77" y="1"/>
      <point x="126" y="-15"/>
    </contour>
  </outline>
</glyph>
<glyph name="C" format="2">
  <advance width="469"/>
  <unicode hex="0043"/>
  <anchor x="235" y="0" name="bottom"/>
  <anchor x="235" y="693" name="top"/>
  <outline>
    <contour>
      <point x="307" y="-15" type="curve" smooth="yes"/>
      <point x="372" y="-15"/>
      <point x="424" y="5"/>
      <point x="454" y="29" type="curve"/>
      <point x="429" y="100" type="line"/>
      <point x="397" y="79"/>
      <point x="367" y="64"/>
      <point x="313" y="64" type="curve" smooth="yes"/>
      <point x="198" y="64"/>
      <point x="151" y="169"/>
      <point x="151" y="357" type="curve" smooth="yes"/>
      <point x="151" y="542"/>
      <point x="197" y="630"/>
      <point x="303" y="630" type="curve" smooth="yes"/>
      <point x="351" y="630"/>
      <point x="386" y="615"/>
      <point x="418" y="594" type="curve"/>
      <point x="445" y="669" type="line"/>
      <point x="413" y="691"/>
      <point x="359" y="709"/>
      <point x="301" y="709" type="curve" smooth="yes"/>
      <point x="161" y="709"/>
      <point x="55" y="615"/>
      <point x="55" y="357" type="curve" smooth="yes"/>
      <point x="55" y="104"/>
      <point x="145" y="-15"/>
    </contour>
  </outline>
</glyph>
<glyph name="L" format="2">
  <advance width="417"/>
  <unicode hex="004C"/>
  <anchor x="209" y="0" name="bottom"/>
  <anchor x="209" y="347" name="center"/>
  <anchor x="209" y="693" name="top"/>
  <anchor x="397" y="693" name="topright"/>
  <outline>
    <contour>
      <point x="84" y="0" type="line"/>
      <point x="393" y="0" type="line"/>
      <point x="393" y="77" type="line"/>
      <point x="174" y="77" type="line"/>
      <point x="174" y="693" type="line"/>
      <point x="84" y="693" type="line"/>
    </contour>
  </outline>
</glyph>
<glyph name="O" format="2">
  <advance width="605"/>
  <unicode hex="004F"/>
  <anchor x="303" y="0" name="bottom"/>
  <anchor x="303" y="347" name="center"/>
  <anchor x="545" y="10" name="ogonek"/>
  <anchor x="303" y="693" name="top"/>
  <anchor x="20" y="693" name="topleft"/>
  <anchor x="585" y="693" name="topright"/>
  <outline>
    <contour>
      <point x="303" y="-15" type="curve" smooth="yes"/>
      <point x="472" y="-15"/>
      <point x="549" y="131"/>
      <point x="549" y="346" type="curve" smooth="yes"/>
      <point x="549" y="562"/>
      <point x="472" y="709"/>
      <point x="303" y="709" type="curve" smooth="yes"/>
      <point x="134" y="709"/>
      <point x="56" y="562"/>
      <point x="56" y="346" type="curve" smooth="yes"/>
      <point x="56" y="131"/>
      <point x="134" y="-15"/>
    </contour>
    <contour>
      <point x="303" y="64" type="curve" smooth="yes"/>
      <point x="194" y="64"/>
      <point x="152" y="178"/>
      <point x="152" y="346" type="curve" smooth="yes"/>
      <point x="152" y="514"/>
      <point x="194" y="630"/>
      <point x="303" y="630" type="curve" smooth="yes"/>
      <point x="413" y="630"/>
      <point x="453" y="514"/>
      <point x="453" y="346" type="curve" smooth="yes"/>
      <point x="453" y="178"/>
      <point x="413" y="64"/>
    </contour>
  </outline>
</glyph>
<glyph name="u" format="2">
  <advance width="480"/>
  <unicode hex="0075"/>
  <anchor x="240" y="0" name="bottom"/>
  <anchor x="432" y="10" name="ogonek"/>
  <anchor x="240" y="520" name="top"/>
  <anchor x="460" y="520" name="topright"/>
  <outline>
    <contour>
      <point x="254" y="-11" type="curve" smooth="yes"/>
      <point x="300" y="-11"/>
      <point x="368" y="3"/>
      <point x="403" y="15" type="curve"/>
      <point x="403" y="525" type="line"/>
      <point x="317" y="525" type="line"/>
      <point x="317" y="73" type="line"/>
      <point x="294" y="67"/>
      <point x="273" y="65"/>
      <point x="252" y="65" type="curve" smooth="yes"/>
      <point x="188" y="65"/>
      <point x="157" y="102"/>
      <point x="157" y="205" type="curve" smooth="yes"/>
      <point x="157" y="525" type="line"/>
      <point x="71" y="525" type="line"/>
      <point x="71" y="202" type="line" smooth="yes"/>
      <point x="71" y="33"/>
      <point x="144" y="-11"/>
    </contour>
  </outline>
</glyph>
<glyph name="ae" format="2">
  <advance width="663"/>
  <unicode hex="00E6"/>
  <anchor x="332" y="0" name="bottom"/>
  <anchor x="332" y="520" name="top"/>
  <outline>
    <contour>
      <point x="215" y="-13" type="curve" smooth="yes"/>
      <point x="268" y="-13"/>
      <point x="310" y="1"/>
      <point x="352" y="25" type="curve"/>
      <point x="382" y="0"/>
      <point x="421" y="-13"/>
      <point x="473" y="-13" type="curve" smooth="yes"/>
      <point x="528" y="-13"/>
      <point x="572" y="5"/>
      <point x="589" y="17" type="curve"/>
      <point x="573" y="86" type="line"/>
      <point x="559" y="78"/>
      <point x="523" y="63"/>
      <point x="484" y="63" type="curve" smooth="yes"/>
      <point x="391" y="63"/>
      <point x="367" y="137"/>
      <point x="364" y="237" type="curve"/>
      <point x="613" y="237" type="line"/>
      <point x="614" y="253"/>
      <point x="614" y="268"/>
      <point x="614" y="283" type="curve" smooth="yes"/>
      <point x="614" y="444"/>
      <point x="570" y="538"/>
      <point x="451" y="538" type="curve" smooth="yes"/>
      <point x="402" y="538"/>
      <point x="360" y="515"/>
      <point x="330" y="470" type="curve"/>
      <point x="303" y="518"/>
      <point x="258" y="538"/>
      <point x="204" y="538" type="curve" smooth="yes"/>
      <point x="159" y="538"/>
      <point x="120" y="528"/>
      <point x="86" y="514" type="curve"/>
      <point x="104" y="441" type="line"/>
      <point x="135" y="454"/>
      <point x="161" y="460"/>
      <point x="191" y="460" type="curve" smooth="yes"/>
      <point x="247" y="460"/>
      <point x="278" y="433"/>
      <point x="278" y="356" type="curve" smooth="yes"/>
      <point x="278" y="308" type="line"/>
      <point x="253" y="313"/>
      <point x="228" y="316"/>
      <point x="205" y="316" type="curve" smooth="yes"/>
      <point x="111" y="316"/>
      <point x="41" y="261"/>
      <point x="41" y="152" type="curve" smooth="yes"/>
      <point x="41" y="38"/>
      <point x="118" y="-13"/>
    </contour>
    <contour>
      <point x="219" y="63" type="curve" smooth="yes"/>
      <point x="160" y="63"/>
      <point x="127" y="101"/>
      <point x="127" y="153" type="curve" smooth="yes"/>
      <point x="127" y="224"/>
      <point x="168" y="245"/>
      <point x="219" y="245" type="curve" smooth="yes"/>
      <point x="237" y="245"/>
      <point x="258" y="242"/>
      <point x="276" y="237" type="curve"/>
      <point x="278" y="178"/>
      <point x="287" y="127"/>
      <point x="306" y="87" type="curve"/>
      <point x="282" y="72"/>
      <point x="255" y="63"/>
    </contour>
    <contour>
      <point x="365" y="307" type="line"/>
      <point x="370" y="402"/>
      <point x="394" y="465"/>
      <point x="451" y="465" type="curve" smooth="yes"/>
      <point x="508" y="465"/>
      <point x="524" y="404"/>
      <point x="524" y="307" type="curve"/>
    </contour>
  </outline>
</glyph>
<glyph name="eogonek" format="2">
  <advance width="436"/>
  <unicode hex="0119"/>
  <anchor x="218" y="520" name="top"/>
  <outline>
    <contour>
      <point x="302" y="-187" type="curve" smooth="yes"/>
      <point x="324" y="-187"/>
      <point x="346" y="-183"/>
      <point x="364" y="-176" type="curve"/>
      <point x="359" y="-113" type="line"/>
      <point x="347" y="-118"/>
      <point x="335" y="-120"/>
      <point x="323" y="-120" type="curve" smooth="yes"/>
      <point x="299" y="-120"/>
      <point x="280" y="-108"/>
      <point x="280" y="-79" type="curve" smooth="yes"/>
      <point x="280" y="-49"/>
      <point x="306" y="-18"/>
      <point x="362" y="17" type="curve"/>
      <point x="346" y="86" type="line"/>
      <point x="332" y="78"/>
      <point x="296" y="63"/>
      <point x="257" y="63" type="curve" smooth="yes"/>
      <point x="164" y="63"/>
      <point x="140" y="137"/>
      <point x="137" y="237" type="curve"/>
      <point x="386" y="237" type="line"/>
      <point x="387" y="253"/>
      <point x="387" y="268"/>
      <point x="387" y="283" type="curve" smooth="yes"/>
      <point x="387" y="444"/>
      <point x="343" y="538"/>
      <point x="224" y="538" type="curve" smooth="yes"/>
      <point x="119" y="538"/>
      <point x="49" y="453"/>
      <point x="49" y="259" type="curve" smooth="yes"/>
      <point x="49" y="101"/>
      <point x="97" y="-8"/>
      <point x="236" y="-13" type="curve" smooth="yes"/>
      <point x="237" y="-13"/>
      <point x="239" y="-13"/>
      <point x="240" y="-13" type="curve"/>
      <point x="216" y="-39"/>
      <point x="202" y="-67"/>
      <point x="202" y="-100" type="curve" smooth="yes"/>
      <point x="202" y="-154"/>
      <point x="244" y="-187"/>
    </contour>
    <contour>
      <point x="138" y="307" type="line"/>
      <point x="143" y="402"/>
      <point x="167" y="465"/>
      <point x="224" y="465" type="curve" smooth="yes"/>
      <point x="281" y="465"/>
      <point x="297" y="404"/>
      <point x="297" y="307" type="curve"/>
    </contour>
  </outline>
</glyph>
<glyph name="lslash" format="2">
  <advance width="243"/>
  <unicode hex="0142"/>
  <outline>
    <contour>
      <point x="214" y="-10" type="curve"/>
      <point x="225" y="62" type="line"/>
      <point x="178" y="70"/>
      <point x="162" y="88"/>
      <point x="162" y="134" type="curve" smooth="yes"/>
      <point x="162" y="390" type="line"/>
      <point x="251" y="440" type="line"/>
      <point x="218" y="499" type="line"/>
      <point x="162" y="467" type="line"/>
      <point x="162" y="776" type="line"/>
      <point x="76" y="761" type="line"/>
      <point x="76" y="418" type="line"/>
      <point x="-8" y="371" type="line"/>
      <point x="25" y="313" type="line"/>
      <point x="76" y="341" type="line"/>
      <point x="76" y="136" type="line" smooth="yes"/>
      <point x="76" y="37"/>
      <point x="116" y="-7"/>
    </contour>
  </outline>
</glyph>
<glyph name="Eng" format="2">
  <advance width="581"/>
  <unicode hex="014A"/>
  <anchor x="291" y="0" name="bottom"/>
  <anchor x="291" y="693" name="top"/>
  <outline>
    <contour>
      <point x="370" y="-190" type="curve" smooth="yes"/>
      <point x="449" y="-190"/>
      <point x="497" y="-144"/>
      <point x="497" y="-30" type="curve"/>
      <point x="497" y="693" type="line"/>
      <point x="413" y="693" type="line"/>
      <point x="413" y="196" type="line"/>
      <point x="350" y="344"/>
      <point x="260" y="527"/>
      <point x="159" y="693" type="curve"/>
      <point x="84" y="693" type="line"/>
      <point x="84" y="0" type="line"/>
      <point x="168" y="0" type="line"/>
      <point x="168" y="531" type="line"/>
      <point x="253" y="382"/>
      <point x="348" y="182"/>
      <point x="413" y="27" type="curve"/>
      <point x="413" y="-25" type="line" smooth="yes"/>
      <point x="413" y="-95"/>
      <point x="395" y="-112"/>
      <point x="360" y="-112" type="curve" smooth="yes"/>
      <point x="348" y="-112"/>
      <point x="337" y="-110"/>
      <point x="325" y="-107" type="curve"/>
      <point x="313" y="-180" type="line"/>
      <point x="330" y="-187"/>
      <point x="350" y="-190"/>
    </contour>
  </outline>
</glyph>
<glyph name="uni018B" format="2">
  <advance width="501"/>
  <unicode hex="018B"/>
  <anchor x="251" y="0" name="bottom"/>
  <anchor x="251" y="693" name="top"/>
  <outline>
    <contour>
      <point x="278" y="-7" type="curve" smooth="yes"/>
      <point x="324" y="-7"/>
      <point x="371" y="-1"/>
      <point x="417" y="10" type="curve"/>
      <point x="417" y="693" type="line"/>
      <point x="106" y="693" type="line"/>
      <point x="106" y="616" type="line"/>
      <point x="327" y="616" type="line"/>
      <point x="327" y="436" type="line"/>
      <point x="284" y="436" type="line" smooth="yes"/>
      <point x="149" y="436"/>
      <point x="44" y="375"/>
      <point x="44" y="214" type="curve" smooth="yes"/>
      <point x="44" y="56"/>
      <point x="134" y="-7"/>
    </contour>
    <contour>
      <point x="278" y="72" type="curve" smooth="yes"/>
      <point x="196" y="72"/>
      <point x="139" y="106"/>
      <point x="139" y="214" type="curve" smooth="yes"/>
      <point x="139" y="320"/>
      <point x="196" y="357"/>
      <point x="290" y="357" type="curve" smooth="yes"/>
      <point x="327" y="357" type="line"/>
      <point x="327" y="75" type="line"/>
      <point x="312" y="73"/>
      <point x="295" y="72"/>
    </contour>
  </outline>
</glyph>
<glyph name="uni0198" format="2">
  <advance width="526"/>
  <unicode hex="0198"/>
  <anchor x="263" y="0" name="bottom"/>
  <anchor x="263" y="693" name="top"/>
  <outline>
    <contour>
      <point x="84" y="0" type="line"/>
      <point x="174" y="0" type="line"/>
      <point x="174" y="333" type="line"/>
      <point x="253" y="264"/>
      <point x="348" y="123"/>
      <point x="404" y="0" type="curve"/>
      <point x="505" y="0" type="line"/>
      <point x="456" y="117"/>
      <point x="338" y="290"/>
      <point x="259" y="371" type="curve"/>
      <point x="309" y="438"/>
      <point x="363" y="516"/>
      <point x="401" y="574" type="curve" smooth="yes"/>
      <point x="430" y="619"/>
      <point x="446" y="622"/>
      <point x="461" y="622" type="curve" smooth="yes"/>
      <point x="473" y="622"/>
      <point x="489" y="615"/>
      <point x="504" y="602" type="curve"/>
      <point x="534" y="667" type="line"/>
      <point x="512" y="687"/>
      <point x="476" y="699"/>
      <point x="446" y="699" type="curve" smooth="yes"/>
      <point x="406" y="699"/>
      <point x="371" y="678"/>
      <point x="332" y="615" type="curve" smooth="yes"/>
      <point x="297" y="558"/>
      <point x="242" y="476"/>
      <point x="174" y="387" type="curve"/>
      <point x="174" y="693" type="line"/>
      <point x="84" y="693" type="line"/>
    </contour>
  </outline>
</glyph>
<glyph name="Ohorn" format="2">
  <advance width="605"/>
  <unicode hex="01A0"/>
  <anchor x="303" y="0" name="bottom"/>
  <anchor x="303" y="693" name="top"/>
  <outline>
    <contour>
      <point x="303" y="-15" type="curve" smooth="yes"/>
      <point x="472" y="-15"/>
      <point x="549" y="131"/>
      <point x="549" y="346" type="curve" smooth="yes"/>
      <point x="549" y="447"/>
      <point x="532" y="532"/>
      <point x="497" y="595" type="curve"/>
      <point x="542" y="643"/>
      <point x="567" y="705"/>
      <point x="567" y="769" type="curve" smooth="yes"/>
      <point x="567" y="781"/>
      <point x="567" y="787"/>
      <point x="565" y="801" type="curve"/>
      <point x="479" y="801" type="line"/>
      <point x="480" y="793"/>
      <point x="481" y="776"/>
      <point x="481" y="763" type="curve" smooth="yes"/>
      <point x="481" y="720"/>
      <point x="472" y="688"/>
      <point x="451" y="655" type="curve"/>
      <point x="413" y="690"/>
      <point x="364" y="709"/>
      <point x="303" y="709" type="curve" smooth="yes"/>
      <point x="134" y="709"/>
      <point x="56" y="562"/>
      <point x="56" y="346" type="curve" smooth="yes"/>
      <point x="56" y="131"/>
      <point x="134" y="-15"/>
    </contour>
    <contour>
      <point x="303" y="64" type="curve" smooth="yes"/>
      <point x="194" y="64"/>
      <point x="152" y="178"/>
      <point x="152" y="346" type="curve" smooth="yes"/>
      <point x="152" y="514"/>
      <point x="194" y="630"/>
      <point x="303" y="630" type="curve" smooth="yes"/>
      <point x="413" y="630"/>
      <point x="453" y="514"/>
      <point x="453" y="346" type="curve" smooth="yes"/>
      <point x="453" y="178"/>
      <point x="413" y="64"/>
    </contour>
  </outline>
</glyph>
<glyph name="uni01B7" format="2">
  <advance width="403"/>
  <unicode hex="01B7"/>
  <anchor x="202" y="0" name="bottom"/>
  <anchor x="202" y="693" name="top"/>
  <outline>
    <contour>
      <point x="151" y="-15" type="curve" smooth="yes"/>
      <point x="290" y="-15"/>
      <point x="368" y="77"/>
      <point x="368" y="192" type="curve" smooth="yes"/>
      <point x="368" y="304"/>
      <point x="305" y="380"/>
      <point x="204" y="402" type="curve"/>
      <point x="256" y="480"/>
      <point x="303" y="560"/>
      <point x="347" y="643" type="curve"/>
      <point x="347" y="693" type="line"/>
      <point x="36" y="693" type="line"/>
      <point x="36" y="616" type="line"/>
      <point x="247" y="616" type="line"/>
      <point x="205" y="537"/>
      <point x="158" y="460"/>
      <point x="107" y="385" type="curve"/>
      <point x="107" y="333" type="line"/>
      <point x="130" y="333" type="line" smooth="yes"/>
      <point x="216" y="333"/>
      <point x="275" y="285"/>
      <point x="275" y="193" type="curve" smooth="yes"/>
      <point x="275" y="104"/>
      <point x="217" y="61"/>
      <point x="151" y="61" type="curve" smooth="yes"/>
      <point x="114" y="61"/>
      <point x="69" y="72"/>
      <point x="36" y="89" type="curve"/>
      <point x="20" y="15" type="line"/>
      <point x="54" y="-1"/>
      <point x="103" y="-15"/>
    </contour>
  </outline>
</glyph>
<glyph name="uni01B9" format="2">
  <advance width="363"/>
  <unicode hex="01B9"/>
  <anchor x="182" y="0" name="bottom"/>
  <anchor x="182" y="520" name="top"/>
  <outline>
    <contour>
      <point x="242" y="-188" type="curve" smooth="yes"/>
      <point x="284" y="-188"/>
      <point x="322" y="-178"/>
      <point x="353" y="-165" type="curve"/>
      <point x="337" y="-91" type="line"/>
      <point x="306" y="-104"/>
      <point x="274" y="-112"/>
      <point x="242" y="-112" type="curve" smooth="yes"/>
      <point x="171" y="-112"/>
      <point x="117" y="-72"/>
      <point x="117" y="25" type="curve" smooth="yes"/>
      <point x="117" y="109"/>
      <point x="171" y="158"/>
      <point x="262" y="158" type="curve" smooth="yes"/>
      <point x="284" y="158" type="line"/>
      <point x="284" y="215" type="line"/>
      <point x="233" y="291"/>
      <point x="186" y="365"/>
      <point x="145" y="446" type="curve"/>
      <point x="337" y="446" type="line"/>
      <point x="337" y="520" type="line"/>
      <point x="51" y="520" type="line"/>
      <point x="51" y="470" type="line"/>
      <point x="96" y="383"/>
      <point x="144" y="305"/>
      <point x="198" y="224" type="curve"/>
      <point x="89" y="204"/>
      <point x="30" y="132"/>
      <point x="30" y="19" type="curve" smooth="yes"/>
      <point x="30" y="-106"/>
      <point x="110" y="-188"/>
    </contour>
  </outline>
</glyph>
<glyph name="uni01BF" format="2">
  <advance width="460"/>
  <unicode hex="01BF"/>
  <outline>
    <contour>
      <point x="78" y="-185" type="line"/>
      <point x="164" y="-185" type="line"/>
      <point x="164" y="-56" type="line"/>
      <point x="297" y="5"/>
      <point x="412" y="105"/>
      <point x="412" y="298" type="curve" smooth="yes"/>
      <point x="412" y="453"/>
      <point x="333" y="531"/>
      <point x="218" y="531" type="curve" smooth="yes"/>
      <point x="167" y="531"/>
      <point x="116" y="514"/>
      <point x="78" y="494" type="curve"/>
    </contour>
    <contour>
      <point x="164" y="27" type="curve"/>
      <point x="164" y="445" type="line"/>
      <point x="183" y="453"/>
      <point x="201" y="457"/>
      <point x="218" y="457" type="curve" smooth="yes"/>
      <point x="280" y="457"/>
      <point x="322" y="401"/>
      <point x="322" y="300" type="curve" smooth="yes"/>
      <point x="322" y="151"/>
      <point x="261" y="83"/>
    </contour>
  </outline>
</glyph>
<glyph name="uni01EB" format="2">
  <advance width="463"/>
  <unicode hex="01EB"/>
  <anchor x="232" y="520" name="top"/>
  <outline>
    <contour>
      <point x="275" y="-187" type="curve" smooth="yes"/>
      <point x="297" y="-187"/>
      <point x="319" y="-183"/>
      <point x="337" y="-176" type="curve"/>
      <point x="332" y="-113" type="line"/>
      <point x="320" y="-118"/>
      <point x="308" y="-120"/>
      <point x="296" y="-120" type="curve" smooth="yes"/>
      <point x="272" y="-120"/>
      <point x="253" y="-108"/>
      <point x="253" y="-77" type="curve" smooth="yes"/>
      <point x="253" y="-57"/>
      <point x="263" y="-42"/>
      <point x="275" y="-28" type="curve" smooth="yes"/>
      <point x="287" y="-17"/>
      <point x="300" y="-7"/>
      <point x="313" y="4" type="curve" smooth="yes"/>
      <point x="370" y="50"/>
      <point x="415" y="104"/>
      <point x="415" y="262" type="curve" smooth="yes"/>
      <point x="415" y="426"/>
      <point x="358" y="538"/>
      <point x="232" y="538" type="curve" smooth="yes"/>
      <point x="106" y="538"/>
      <point x="48" y="426"/>
      <point x="48" y="262" type="curve" smooth="yes"/>
      <point x="48" y="108"/>
      <point x="98" y="2"/>
      <point x="209" y="-12" type="curve" smooth="yes"/>
      <point x="209" y="-12"/>
      <point x="210" y="-12"/>
      <point x="211" y="-12" type="curve"/>
      <point x="188" y="-37"/>
      <point x="175" y="-65"/>
      <point x="175" y="-98" type="curve" smooth="yes"/>
      <point x="175" y="-153"/>
      <point x="217" y="-187"/>
    </contour>
    <contour>
      <point x="232" y="64" type="curve" smooth="yes"/>
      <point x="164" y="64"/>
      <point x="138" y="144"/>
      <point x="138" y="262" type="curve" smooth="yes"/>
      <point x="138" y="380"/>
      <point x="164" y="461"/>
      <point x="232" y="461" type="curve" smooth="yes"/>
      <point x="300" y="461"/>
      <point x="325" y="380"/>
      <point x="325" y="262" type="curve" smooth="yes"/>
      <point x="325" y="144"/>
      <point x="300" y="64"/>
    </contour>
  </outline>
</glyph>
<glyph name="uni021D" format="2">
  <advance width="353"/>
  <unicode hex="021D"/>
  <outline>
    <contour>
      <point x="19" y="-182" type="line"/>
      <point x="195" y="-182"/>
      <point x="322" y="-111"/>
      <point x="322" y="38" type="curve" smooth="yes"/>
      <point x="322" y="115"/>
      <point x="277" y="184"/>
      <point x="216" y="208" type="curve"/>
      <point x="270" y="237"/>
      <point x="301" y="297"/>
      <point x="301" y="366" type="curve" smooth="yes"/>
      <point x="301" y="464"/>
      <point x="237" y="534"/>
      <point x="137" y="534" type="curve" smooth="yes"/>
      <point x="87" y="534"/>
      <point x="44" y="518"/>
      <point x="10" y="498" type="curve"/>
      <point x="36" y="429" type="line"/>
      <point x="64" y="446"/>
      <point x="97" y="458"/>
      <point x="129" y="458" type="curve" smooth="yes"/>
      <point x="181" y="458"/>
      <point x="211" y="418"/>
      <point x="211" y="364" type="curve" smooth="yes"/>
      <point x="211" y="289"/>
      <point x="178" y="240"/>
      <point x="107" y="240" type="curve" smooth="yes"/>
      <point x="81" y="240" type="line"/>
      <point x="81" y="169" type="line"/>
      <point x="111" y="169" type="line" smooth="yes"/>
      <point x="176" y="169"/>
      <point x="231" y="124"/>
      <point x="231" y="38" type="curve" smooth="yes"/>
      <point x="231" y="-89"/>
      <point x="95" y="-117"/>
      <point x="16" y="-109" type="curve"/>
    </contour>
  </outline>
</glyph>
<glyph name="uni023A" format="2">
  <advance width="503"/>
  <unicode hex="023A"/>
  <outline>
    <contour>
      <point x="191" y="-98" type="line"/>
      <point x="253" y="177" type="line"/>
      <point x="359" y="177" type="line"/>
      <point x="371" y="119"/>
      <point x="382" y="60"/>
      <point x="393" y="0" type="curve"/>
      <point x="483" y="0" type="line"/>
      <point x="436" y="229"/>
      <point x="390" y="403"/>
      <point x="341" y="563" type="curve"/>
      <point x="393" y="792" type="line"/>
      <point x="341" y="804" type="line"/>
      <point x="305" y="647" type="line"/>
      <point x="299" y="664"/>
      <point x="293" y="681"/>
      <point x="288" y="693" type="curve"/>
      <point x="204" y="693" type="line"/>
      <point x="140" y="494"/>
      <point x="80" y="292"/>
      <point x="20" y="0" type="curve"/>
      <point x="107" y="0" type="line"/>
      <point x="117" y="60"/>
      <point x="128" y="119"/>
      <point x="141" y="177" type="curve"/>
      <point x="197" y="177" type="line"/>
      <point x="137" y="-86" type="line"/>
    </contour>
    <contour>
      <point x="158" y="252" type="line"/>
      <point x="186" y="369"/>
      <point x="217" y="481"/>
      <point x="250" y="591" type="curve"/>
      <point x="258" y="564"/>
      <point x="266" y="537"/>
      <point x="274" y="510" type="curve"/>
      <point x="214" y="252" type="line"/>
    </contour>
    <contour>
      <point x="270" y="252" type="line"/>
      <point x="304" y="401" type="line"/>
      <point x="317" y="352"/>
      <point x="329" y="302"/>
      <point x="341" y="252" type="curve"/>
    </contour>
  </outline>
</glyph>
<glyph name="uni024D" format="2">
  <advance width="328"/>
  <unicode hex="024D"/>
  <anchor x="164" y="0" name="bottom"/>
  <anchor x="164" y="520" name="top"/>
  <outline>
    <contour>
      <point x="78" y="0" type="line"/>
      <point x="164" y="0" type="line"/>
      <point x="164" y="207" type="line"/>
      <point x="279" y="207" type="line"/>
      <point x="279" y="273" type="line"/>
      <point x="164" y="273" type="line"/>
      <point x="164" y="448" type="line"/>
      <point x="186" y="457"/>
      <point x="210" y="461"/>
      <point x="233" y="461" type="curve" smooth="yes"/>
      <point x="258" y="461"/>
      <point x="282" y="457"/>
      <point x="305" y="447" type="curve"/>
      <point x="320" y="521" type="line"/>
      <point x="292" y="531"/>
      <point x="259" y="535"/>
      <point x="227" y="535" type="curve" smooth="yes"/>
      <point x="168" y="535"/>
      <point x="117" y="520"/>
      <point x="78" y="502" type="curve"/>
      <point x="78" y="273" type="line"/>
      <point x="15" y="273" type="line"/>
      <point x="15" y="207" type="line"/>
      <point x="78" y="207" type="line"/>
    </contour>
  </outline>
</glyph>
<glyph name="Phi" format="2">
  <advance width="654"/>
  <unicode hex="03A6"/>
  <outline>
    <contour>
      <point x="284" y="0" type="line"/>
      <point x="370" y="0" type="line"/>
      <point x="370" y="86" type="line"/>
      <point x="515" y="99"/>
      <point x="609" y="209"/>
      <point x="609" y="370" type="curve" smooth="yes"/>
      <point x="609" y="531"/>
      <point x="515" y="641"/>
      <point x="370" y="655" type="curve"/>
      <point x="370" y="738" type="line"/>
      <point x="284" y="738" type="line"/>
      <point x="284" y="655" type="line"/>
      <point x="138" y="641"/>
      <point x="45" y="531"/>
      <point x="45" y="370" type="curve" smooth="yes"/>
      <point x="45" y="209"/>
      <point x="138" y="99"/>
      <point x="284" y="86" type="curve"/>
    </contour>
    <contour>
      <point x="284" y="161" type="line"/>
      <point x="183" y="173"/>
      <point x="136" y="253"/>
      <point x="136" y="370" type="curve" smooth="yes"/>
      <point x="136" y="487"/>
      <point x="183" y="568"/>
      <point x="284" y="581" type="curve"/>
    </contour>
    <contour>
      <point x="370" y="161" type="curve"/>
      <point x="370" y="581" type="line"/>
      <point x="471" y="568"/>
      <point x="518" y="487"/>
      <point x="518" y="370" type="curve" smooth="yes"/>
      <point x="518" y="253"/>
      <point x="471" y="173"/>
    </contour>
  </outline>
</glyph>
<glyph name="iota" format="2">
  <advance width="243"/>
  <unicode hex="03B9"/>
  <anchor x="122" y="520" name="top"/>
  <outline>
    <contour>
      <point x="214" y="-10" type="curve"/>
      <point x="225" y="59" type="line"/>
      <point x="175" y="67"/>
      <point x="162" y="85"/>
      <point x="162" y="131" type="curve" smooth="yes"/>
      <point x="162" y="525" type="line"/>
      <point x="76" y="525" type="line"/>
      <point x="76" y="132" type="line" smooth="yes"/>
      <point x="76" y="33"/>
      <point x="116" y="-7"/>
    </contour>
  </outline>
</glyph>
<glyph name="rho" format="2">
  <advance width="469"/>
  <unicode hex="03C1"/>
  <outline>
    <contour>
      <point x="72" y="-185" type="line"/>
      <point x="158" y="-185" type="line"/>
      <point x="158" y="4" type="line"/>
      <point x="180" y="-6"/>
      <point x="203" y="-13"/>
      <point x="235" y="-13" type="curve" smooth="yes"/>
      <point x="367" y="-13"/>
      <point x="421" y="85"/>
      <point x="421" y="265" type="curve" smooth="yes"/>
      <point x="421" y="432"/>
      <point x="366" y="538"/>
      <point x="245" y="538" type="curve" smooth="yes"/>
      <point x="148" y="538"/>
      <point x="72" y="483"/>
      <point x="72" y="334" type="curve" smooth="yes"/>
    </contour>
    <contour>
      <point x="223" y="63" type="curve" smooth="yes"/>
      <point x="200" y="63"/>
      <point x="177" y="69"/>
      <point x="158" y="79" type="curve"/>
      <point x="158" y="338" type="line" smooth="yes"/>
      <point x="158" y="419"/>
      <point x="182" y="462"/>
      <point x="242" y="462" type="curve" smooth="yes"/>
      <point x="302" y="462"/>
      <point x="331" y="401"/>
      <point x="331" y="266" type="curve" smooth="yes"/>
      <point x="331" y="113"/>
      <point x="291" y="63"/>
    </contour>
  </outline>
</glyph>
<glyph name="upsilon" format="2">
  <advance width="485"/>
  <unicode hex="03C5"/>
  <anchor x="243" y="520" name="top"/>
  <outline>
    <contour>
      <point x="243" y="-11" type="curve" smooth="yes"/>
      <point x="356" y="-11"/>
      <point x="413" y="61"/>
      <point x="413" y="177" type="curve" smooth="yes"/>
      <point x="413" y="525" type="line"/>
      <point x="327" y="525" type="line"/>
      <point x="327" y="177" type="line" smooth="yes"/>
      <point x="327" y="106"/>
      <point x="303" y="65"/>
      <point x="242" y="65" type="curve" smooth="yes"/>
      <point x="182" y="65"/>
      <point x="158" y="106"/>
      <point x="158" y="176" type="curve" smooth="yes"/>
      <point x="158" y="525" type="line"/>
      <point x="72" y="525" type="line"/>
      <point x="72" y="177" type="line" smooth="yes"/>
      <point x="72" y="53"/>
      <point x="131" y="-11"/>
    </contour>
  </outline>
</glyph>
<glyph name="chi" format="2">
  <advance width="392"/>
  <unicode hex="03C7"/>
  <outline>
    <contour>
      <point x="15" y="0" type="curve"/>
      <point x="97" y="0" type="line"/>
      <point x="123" y="77"/>
      <point x="160" y="148"/>
      <point x="193" y="209" type="curve"/>
      <point x="227" y="148"/>
      <point x="266" y="77"/>
      <point x="292" y="0" type="curve"/>
      <point x="377" y="0" type="line"/>
      <point x="346" y="87"/>
      <point x="288" y="196"/>
      <point x="243" y="278" type="curve"/>
      <point x="372" y="525" type="line"/>
      <point x="288" y="525" type="line"/>
      <point x="197" y="347" type="line"/>
      <point x="107" y="525" type="line"/>
      <point x="20" y="525" type="line"/>
      <point x="149" y="276" type="line"/>
      <point x="105" y="194"/>
      <point x="45" y="87"/>
    </contour>
  </outline>
</glyph>
<glyph name="afii10053" format="2">
  <advance width="477"/>
  <unicode hex="0404"/>
  <outline>
    <contour>
      <point x="307" y="-15" type="curve" smooth="yes"/>
      <point x="372" y="-15"/>
      <point x="424" y="5"/>
      <point x="454" y="29" type="curve"/>
      <point x="429" y="100" type="line"/>
      <point x="397" y="79"/>
      <point x="367" y="64"/>
      <point x="313" y="64" type="curve" smooth="yes"/>
      <point x="204" y="64"/>
      <point x="156" y="157"/>
      <point x="151" y="325" type="curve"/>
      <point x="359" y="325" type="line"/>
      <point x="359" y="402" type="line"/>
      <point x="152" y="402" type="line"/>
      <point x="159" y="556"/>
      <point x="206" y="630"/>
      <point x="303" y="630" type="curve" smooth="yes"/>
      <point x="351" y="630"/>
      <point x="386" y="615"/>
      <point x="418" y="594" type="curve"/>
      <point x="445" y="669" type="line"/>
      <point x="413" y="691"/>
      <point x="359" y="709"/>
      <point x="301" y="709" type="curve" smooth="yes"/>
      <point x="161" y="709"/>
      <point x="55" y="615"/>
      <point x="55" y="357" type="curve" smooth="yes"/>
      <point x="55" y="104"/>
      <point x="145" y="-15"/>
    </contour>
  </outline>
</glyph>
<glyph name="afii10020" format="2">
  <advance width="410"/>
  <unicode hex="0413"/>
  <anchor x="390" y="0" name="bottomright"/>
  <anchor x="205" y="693" name="top"/>
  <outline>
    <contour>
      <point x="84" y="0" type="line"/>
      <point x="174" y="0" type="line"/>
      <point x="174" y="616" type="line"/>
      <point x="386" y="616" type="line"/>
      <point x="386" y="693" type="line"/>
      <point x="84" y="693" type="line"/>
    </contour>
  </outline>
</glyph>
<glyph name="afii10029" format="2">
  <advance width="579"/>
  <unicode hex="041B"/>
  <outline>
    <contour>
      <point x="19" y="-10" type="line"/>
      <point x="120" y="-10"/>
      <point x="186" y="50"/>
      <point x="218" y="162" type="curve" smooth="yes"/>
      <point x="254" y="286"/>
      <point x="260" y="435"/>
      <point x="260" y="617" type="curve"/>
      <point x="405" y="617" type="line"/>
      <point x="405" y="0" type="line"/>
      <point x="495" y="0" type="line"/>
      <point x="495" y="693" type="line"/>
      <point x="172" y="693" type="line"/>
      <point x="172" y="443"/>
      <point x="171" y="294"/>
      <point x="133" y="182" type="curve" smooth="yes"/>
      <point x="106" y="102"/>
      <point x="68" y="77"/>
      <point x="10" y="67" type="curve"/>
    </contour>
  </outline>
</glyph>
<glyph name="afii10049" format="2">
  <advance width="514"/>
  <unicode hex="042F"/>
  <anchor x="257" y="693" name="top"/>
  <outline>
    <contour>
      <point x="30" y="0" type="curve"/>
      <point x="120" y="0" type="line"/>
      <point x="149" y="80"/>
      <point x="212" y="209"/>
      <point x="250" y="274" type="curve"/>
      <point x="271" y="271"/>
      <point x="294" y="270"/>
      <point x="317" y="270" type="curve" smooth="yes"/>
      <point x="342" y="270" type="line"/>
      <point x="342" y="0" type="line"/>
      <point x="430" y="0" type="line"/>
      <point x="430" y="683" type="line"/>
      <point x="385" y="694"/>
      <point x="340" y="700"/>
      <point x="295" y="700" type="curve" smooth="yes"/>
      <point x="157" y="700"/>
      <point x="66" y="627"/>
      <point x="66" y="484" type="curve" smooth="yes"/>
      <point x="66" y="384"/>
      <point x="105" y="327"/>
      <point x="166" y="297" type="curve"/>
      <point x="134" y="241"/>
      <point x="63" y="104"/>
    </contour>
    <contour>
      <point x="304" y="344" type="line" smooth="yes"/>
      <point x="212" y="344"/>
      <point x="161" y="382"/>
      <point x="161" y="484" type="curve" smooth="yes"/>
      <point x="161" y="588"/>
      <point x="214" y="621"/>
      <point x="294" y="621" type="curve" smooth="yes"/>
      <point x="311" y="621"/>
      <point x="327" y="620"/>
      <point x="342" y="618" type="curve"/>
      <point x="342" y="344" type="line"/>
    </contour>
  </outline>
</glyph>
<glyph name="uni0474" format="2">
  <advance width="561"/>
  <unicode hex="0474"/>
  <anchor x="281" y="693" name="top"/>
  <outline>
    <contour>
      <point x="188" y="0" type="curve"/>
      <point x="285" y="0" type="line"/>
      <point x="329" y="154"/>
      <point x="368" y="309"/>
      <point x="421" y="548" type="curve" smooth="yes"/>
      <point x="433" y="602"/>
      <point x="453" y="631"/>
      <point x="492" y="631" type="curve" smooth="yes"/>
      <point x="514" y="631"/>
      <point x="532" y="621"/>
      <point x="545" y="611" type="curve"/>
      <point x="577" y="677" type="line"/>
      <point x="551" y="696"/>
      <point x="522" y="709"/>
      <point x="482" y="709" type="curve" smooth="yes"/>
      <point x="400" y="709"/>
      <point x="356" y="651"/>
      <point x="338" y="549" type="curve" smooth="yes"/>
      <point x="310" y="393"/>
      <point x="271" y="238"/>
      <point x="238" y="107" type="curve"/>
      <point x="190" y="276"/>
      <point x="136" y="487"/>
      <point x="102" y="693" type="curve"/>
      <point x="8" y="693" type="line"/>
      <point x="66" y="401"/>
      <point x="126" y="199"/>
    </contour>
  </outline>
</glyph>
<glyph name="uni04AF" format="2">
  <advance width="391"/>
  <unicode hex="04AF"/>
  <outline>
    <contour>
      <point x="154" y="-183" type="line"/>
      <point x="240" y="-183" type="line"/>
      <point x="240" y="-1" type="line"/>
      <point x="283" y="124"/>
      <point x="344" y="352"/>
      <point x="379" y="525" type="curve"/>
      <point x="293" y="525" type="line"/>
      <point x="271" y="399"/>
      <point x="229" y="209"/>
      <point x="197" y="101" type="curve"/>
      <point x="165" y="209"/>
      <point x="125" y="399"/>
      <point x="103" y="525" type="curve"/>
      <point x="12" y="525" type="line"/>
      <point x="47" y="349"/>
      <point x="111" y="114"/>
      <point x="154" y="-9" type="curve"/>
    </contour>
  </outline>
</glyph>
<glyph name="uni04B0" format="2">
  <advance width="451"/>
  <unicode hex="04B0"/>
  <outline>
    <contour>
      <point x="182" y="0" type="line"/>
      <point x="272" y="0" type="line"/>
      <point x="272" y="215" type="line"/>
      <point x="374" y="215" type="line"/>
      <point x="374" y="281" type="line"/>
      <point x="272" y="281" type="line"/>
      <point x="272" y="275" type="line"/>
      <point x="336" y="407"/>
      <point x="403" y="567"/>
      <point x="448" y="693" type="curve"/>
      <point x="354" y="693" type="line"/>
      <point x="319" y="588"/>
      <point x="273" y="463"/>
      <point x="227" y="362" type="curve"/>
      <point x="181" y="463"/>
      <point x="135" y="588"/>
      <point x="100" y="693" type="curve"/>
      <point x="3" y="693" type="line"/>
      <point x="47" y="567"/>
      <point x="114" y="406"/>
      <point x="178" y="275" type="curve"/>
      <point x="178" y="281" type="line"/>
      <point x="80" y="281" type="line"/>
      <point x="80" y="215" type="line"/>
      <point x="182" y="215" type="line"/>
    </contour>
  </outline>
</glyph>
<glyph name="uni04B7" format="2">
  <advance width="441"/>
  <unicode hex="04B7"/>
  <outline>
    <contour>
      <point x="352" y="-145" type="line"/>
      <point x="436" y="-145" type="line"/>
      <point x="436" y="70" type="line"/>
      <point x="372" y="70" type="line"/>
      <point x="372" y="525" type="line"/>
      <point x="286" y="525" type="line"/>
      <point x="286" y="271" type="line"/>
      <point x="263" y="264"/>
      <point x="241" y="260"/>
      <point x="212" y="260" type="curve" smooth="yes"/>
      <point x="148" y="260"/>
      <point x="128" y="308"/>
      <point x="128" y="371" type="curve" smooth="yes"/>
      <point x="128" y="525" type="line"/>
      <point x="42" y="525" type="line"/>
      <point x="42" y="373" type="line" smooth="yes"/>
      <point x="42" y="227"/>
      <point x="112" y="184"/>
      <point x="199" y="184" type="curve" smooth="yes"/>
      <point x="231" y="184"/>
      <point x="261" y="190"/>
      <point x="286" y="198" type="curve"/>
      <point x="286" y="0" type="line"/>
      <point x="352" y="0" type="line"/>
    </contour>
  </outline>
</glyph>
<glyph name="uni04BA" format="2">
  <advance width="520"/>
  <unicode hex="04BA"/>
  <anchor x="500" y="0" name="bottomright"/>
  <outline>
    <contour>
      <point x="84" y="0" type="line"/>
      <point x="174" y="0" type="line"/>
      <point x="174" y="367" type="line"/>
      <point x="205" y="374"/>
      <point x="231" y="377"/>
      <point x="253" y="377" type="curve" smooth="yes"/>
      <point x="342" y="377"/>
      <point x="369" y="331"/>
      <point x="369" y="239" type="curve" smooth="yes"/>
      <point x="369" y="0" type="line"/>
      <point x="455" y="0" type="line"/>
      <point x="455" y="254" type="line" smooth="yes"/>
      <point x="455" y="405"/>
      <point x="374" y="453"/>
      <point x="274" y="453" type="curve" smooth="yes"/>
      <point x="238" y="453"/>
      <point x="203" y="447"/>
      <point x="174" y="439" type="curve"/>
      <point x="174" y="693" type="line"/>
      <point x="84" y="693" type="line"/>
    </contour>
  </outline>
</glyph>
<glyph name="uni04BC" format="2">
  <advance width="635"/>
  <unicode hex="04BC"/>
  <outline>
    <contour>
      <point x="405" y="-15" type="curve" smooth="yes"/>
      <point x="461" y="-15"/>
      <point x="509" y="-1"/>
      <point x="551" y="29" type="curve"/>
      <point x="526" y="100" type="line"/>
      <point x="489" y="75"/>
      <point x="456" y="64"/>
      <point x="412" y="64" type="curve" smooth="yes"/>
      <point x="284" y="64"/>
      <point x="254" y="174"/>
      <point x="252" y="321" type="curve"/>
      <point x="580" y="321" type="line"/>
      <point x="581" y="343"/>
      <point x="581" y="361"/>
      <point x="581" y="381" type="curve" smooth="yes"/>
      <point x="581" y="582"/>
      <point x="526" y="709"/>
      <point x="377" y="709" type="curve" smooth="yes"/>
      <point x="255" y="709"/>
      <point x="172" y="603"/>
      <point x="159" y="397" type="curve"/>
      <point x="106" y="401"/>
      <point x="81" y="427"/>
      <point x="81" y="475" type="curve" smooth="yes"/>
      <point x="81" y="486"/>
      <point x="82" y="498"/>
      <point x="83" y="506" type="curve"/>
      <point x="11" y="515" type="line"/>
      <point x="8" y="506"/>
      <point x="5" y="485"/>
      <point x="5" y="466" type="curve" smooth="yes"/>
      <point x="5" y="366"/>
      <point x="69" y="324"/>
      <point x="158" y="321" type="curve"/>
      <point x="162" y="121"/>
      <point x="225" y="-15"/>
    </contour>
    <contour>
      <point x="253" y="397" type="line"/>
      <point x="260" y="527"/>
      <point x="294" y="629"/>
      <point x="378" y="629" type="curve" smooth="yes"/>
      <point x="460" y="629"/>
      <point x="483" y="525"/>
      <point x="483" y="397" type="curve"/>
    </contour>
  </outline>
</glyph>
<glyph name="uni1FCE" format="2">
  <advance width="314"/>
  <unicode hex="1FCE"/>
  <anchor x="196" y="776" name="_top"/>
  <anchor x="196" y="784" name="top"/>
  <outline>
    <contour>
      <point x="233" y="574" type="line"/>
      <point x="337" y="748" type="line"/>
      <point x="270" y="782" type="line"/>
      <point x="186" y="601" type="line"/>
    </contour>
    <contour>
      <point x="86" y="576" type="line"/>
      <point x="130" y="612"/>
      <point x="183" y="667"/>
      <point x="183" y="725" type="curve" smooth="yes"/>
      <point x="183" y="763"/>
      <point x="158" y="784"/>
      <point x="128" y="784" type="curve" smooth="yes"/>
      <point x="99" y="784"/>
      <point x="77" y="762"/>
      <point x="77" y="732" type="curve" smooth="yes"/>
      <point x="77" y="710"/>
      <point x="89" y="690"/>
      <point x="111" y="682" type="curve"/>
      <point x="99" y="660"/>
      <point x="78" y="632"/>
      <point x="55" y="609" type="curve"/>
    </contour>
  </outline>
</glyph>
<glyph name="uni1FFD" format="2">
  <advance width="314"/>
  <unicode hex="1FFD"/>
  <anchor x="192" y="776" name="_top"/>
  <anchor x="192" y="769" name="top"/>
  <outline>
    <contour>
      <point x="119" y="583" type="line"/>
      <point x="300" y="706" type="line"/>
      <point x="252" y="769" type="line"/>
      <point x="84" y="629" type="line"/>
    </contour>
  </outline>
</glyph>
<glyph name="uni1FFE" format="2">
  <advance width="314"/>
  <unicode hex="1FFE"/>
  <anchor x="152" y="776" name="_top"/>
  <anchor x="152" y="784" name="top"/>
  <outline>
    <contour>
      <point x="187" y="576" type="curve"/>
      <point x="223" y="609" type="line"/>
      <point x="196" y="632"/>
      <point x="171" y="660"/>
      <point x="157" y="682" type="curve"/>
      <point x="178" y="690"/>
      <point x="191" y="710"/>
      <point x="191" y="732" type="curve" smooth="yes"/>
      <point x="191" y="762"/>
      <point x="168" y="784"/>
      <point x="138" y="784" type="curve" smooth="yes"/>
      <point x="106" y="784"/>
      <point x="80" y="763"/>
      <point x="80" y="725" type="curve" smooth="yes"/>
      <point x="80" y="667"/>
      <point x="139" y="612"/>
    </contour>
  </outline>
</glyph>
<glyph name="summation" format="2">
  <advance width="392"/>
  <unicode hex="2211"/>
  <outline>
    <contour>
      <point x="17" y="-109" type="line"/>
      <point x="377" y="-109" type="line"/>
      <point x="377" y="-31" type="line"/>
      <point x="112" y="-31" type="line"/>
      <point x="157" y="83"/>
      <point x="212" y="193"/>
      <point x="273" y="302" type="curve"/>
      <point x="214" y="403"/>
      <point x="163" y="506"/>
      <point x="117" y="615" type="curve"/>
      <point x="377" y="615" type="line"/>
      <point x="377" y="693" type="line"/>
      <point x="20" y="693" type="line"/>
      <point x="20" y="637" type="line"/>
      <point x="66" y="523"/>
      <point x="125" y="406"/>
      <point x="182" y="303" type="curve"/>
      <point x="119" y="187"/>
      <point x="64" y="69"/>
      <point x="17" y="-49" type="curve"/>
    </contour>
  </outline>
</glyph>
<glyph name="kratka" format="2">
  <advance width="310"/>
  <outline>
    <contour>
      <point x="155" y="609" type="curve" smooth="yes"/>
      <point x="219" y="609"/>
      <point x="268" y="644"/>
      <point x="281" y="730" type="curve"/>
      <point x="218" y="744" type="line"/>
      <point x="210" y="693"/>
      <point x="191" y="672"/>
      <point x="155" y="672" type="curve" smooth="yes"/>
      <point x="119" y="672"/>
      <point x="100" y="693"/>
      <point x="92" y="744" type="curve"/>
      <point x="29" y="730" type="line"/>
      <point x="42" y="644"/>
      <point x="91" y="609"/>
    </contour>
  </outline>
</glyph>
